<svg width="66" height="65" viewBox="0 0 66 65" fill="none" xmlns="http://www.w3.org/2000/svg">
<g clip-path="url(#clip0_23_126)">
<path d="M34.6923 65H4.97387C3.89908 65 2.86831 64.572 2.10831 63.8101C1.34832 63.0483 0.921356 62.0149 0.921356 60.9375L0.921356 4.0625C0.921356 2.98506 1.34832 1.95175 2.10831 1.18988C2.86831 0.428012 3.89908 0 4.97387 0L34.6923 0C35.7671 0 36.7979 0.428012 37.5579 1.18988C38.3179 1.95175 38.7449 2.98506 38.7449 4.0625V6.77083H36.0432V4.0625C36.0432 3.70335 35.9009 3.35891 35.6475 3.10496C35.3942 2.851 35.0506 2.70833 34.6923 2.70833H4.97387C4.61561 2.70833 4.27202 2.851 4.01869 3.10496C3.76536 3.35891 3.62304 3.70335 3.62304 4.0625V60.9375C3.62304 61.2966 3.76536 61.6411 4.01869 61.895C4.27202 62.149 4.61561 62.2917 4.97387 62.2917H34.6923C35.0506 62.2917 35.3942 62.149 35.6475 61.895C35.9009 61.6411 36.0432 61.2966 36.0432 60.9375V54.1667H38.7449V60.9375C38.7449 62.0149 38.3179 63.0483 37.5579 63.8101C36.7979 64.572 35.7671 65 34.6923 65Z" fill="#4C4B63"/>
<path d="M2.27219 10.8333H29.289V13.5416H2.27219V10.8333Z" fill="#4C4B63"/>
<path d="M2.27219 51.4583H29.289V54.1666H2.27219V51.4583Z" fill="#4C4B63"/>
<path d="M15.7806 5.41669H23.8856V8.12502H15.7806V5.41669Z" fill="#4C4B63"/>
<path d="M15.7806 56.875H23.8856V59.5833H15.7806V56.875Z" fill="#4C4B63"/>
<path d="M61.7092 20.3125H31.9907C30.9159 20.3125 29.8851 19.8845 29.1251 19.1226C28.3651 18.3607 27.9382 17.3274 27.9382 16.25V10.8333C27.9382 9.75587 28.3651 8.72256 29.1251 7.96069C29.8851 7.19883 30.9159 6.77081 31.9907 6.77081H61.7092C62.784 6.77081 63.8147 7.19883 64.5747 7.96069C65.3347 8.72256 65.7617 9.75587 65.7617 10.8333V16.25C65.7617 17.3274 65.3347 18.3607 64.5747 19.1226C63.8147 19.8845 62.784 20.3125 61.7092 20.3125ZM31.9907 9.47915C31.6324 9.47915 31.2888 9.62182 31.0355 9.87577C30.7822 10.1297 30.6399 10.4742 30.6399 10.8333V16.25C30.6399 16.6091 30.7822 16.9536 31.0355 17.2075C31.2888 17.4615 31.6324 17.6041 31.9907 17.6041H61.7092C62.0674 17.6041 62.411 17.4615 62.6643 17.2075C62.9177 16.9536 63.06 16.6091 63.06 16.25V10.8333C63.06 10.4742 62.9177 10.1297 62.6643 9.87577C62.411 9.62182 62.0674 9.47915 61.7092 9.47915H31.9907Z" fill="#4C4B63"/>
<path d="M61.7091 37.9167H48.2007C47.1259 37.9167 46.0951 37.4887 45.3352 36.7268C44.5752 35.9649 44.1482 34.9316 44.1482 33.8542V28.4375C44.1482 27.3601 44.5752 26.3267 45.3352 25.5649C46.0951 24.803 47.1259 24.375 48.2007 24.375H61.7091C62.7839 24.375 63.8147 24.803 64.5747 25.5649C65.3347 26.3267 65.7616 27.3601 65.7616 28.4375V33.8542C65.7616 34.9316 65.3347 35.9649 64.5747 36.7268C63.8147 37.4887 62.7839 37.9167 61.7091 37.9167ZM48.2007 27.0833C47.8424 27.0833 47.4989 27.226 47.2455 27.48C46.9922 27.7339 46.8499 28.0784 46.8499 28.4375V33.8542C46.8499 34.2133 46.9922 34.5578 47.2455 34.8117C47.4989 35.0657 47.8424 35.2083 48.2007 35.2083H61.7091C62.0674 35.2083 62.411 35.0657 62.6643 34.8117C62.9176 34.5578 63.0599 34.2133 63.0599 33.8542V28.4375C63.0599 28.0784 62.9176 27.7339 62.6643 27.48C62.411 27.226 62.0674 27.0833 61.7091 27.0833H48.2007Z" fill="#4C4B63"/>
<path d="M61.7092 55.5209H31.9907C30.9159 55.5209 29.8851 55.0928 29.1251 54.331C28.3651 53.5691 27.9382 52.5358 27.9382 51.4584V46.0417C27.9382 44.9642 28.3651 43.9309 29.1251 43.1691C29.8851 42.4072 30.9159 41.9792 31.9907 41.9792H61.7092C62.784 41.9792 63.8147 42.4072 64.5747 43.1691C65.3347 43.9309 65.7617 44.9642 65.7617 46.0417V51.4584C65.7617 52.5358 65.3347 53.5691 64.5747 54.331C63.8147 55.0928 62.784 55.5209 61.7092 55.5209ZM31.9907 44.6875C31.6324 44.6875 31.2888 44.8302 31.0355 45.0841C30.7822 45.3381 30.6399 45.6825 30.6399 46.0417V51.4584C30.6399 51.8175 30.7822 52.1619 31.0355 52.4159C31.2888 52.6699 31.6324 52.8125 31.9907 52.8125H61.7092C62.0674 52.8125 62.411 52.6699 62.6643 52.4159C62.9177 52.1619 63.06 51.8175 63.06 51.4584V46.0417C63.06 45.6825 62.9177 45.3381 62.6643 45.0841C62.411 44.8302 62.0674 44.6875 61.7092 44.6875H31.9907Z" fill="#4C4B63"/>
<path d="M7.17575 53.667L5.26566 51.7522L13.9691 43.0273C14.1659 42.8283 14.4194 42.6953 14.6948 42.6468C14.9701 42.5983 15.2537 42.6366 15.5064 42.7565C16.6176 43.2906 17.8529 43.5117 19.0799 43.396C20.3068 43.2802 21.4793 42.8321 22.4717 42.0996C23.464 41.367 24.2389 40.3777 24.7133 39.2374C25.1878 38.0972 25.3439 36.8491 25.1649 35.6268L21.319 39.4957C21.0609 39.7403 20.7192 39.8766 20.364 39.8766C20.0088 39.8766 19.667 39.7403 19.409 39.4957L15.5618 35.639C15.3085 35.385 15.1663 35.0407 15.1663 34.6816C15.1663 34.3225 15.3085 33.9781 15.5618 33.7242L19.4144 29.8635C18.1951 29.6834 16.95 29.8392 15.8124 30.3141C14.6747 30.7891 13.6873 31.5653 12.956 32.5597C12.2247 33.5541 11.7771 34.7292 11.6609 35.9591C11.5448 37.189 11.7646 38.4274 12.2968 39.5417C12.4172 39.7943 12.4565 40.0782 12.4093 40.3542C12.3622 40.6302 12.2308 40.8847 12.0334 41.0827L3.33126 49.8103L1.42117 47.8955L9.48569 39.8125C8.84891 38.035 8.75394 36.1078 9.21285 34.2761C9.67176 32.4443 10.6638 30.7908 12.0628 29.5258C13.4618 28.2609 15.2045 27.4417 17.0693 27.1724C18.934 26.9031 20.8365 27.196 22.5348 28.0137C22.7297 28.1071 22.8994 28.246 23.0296 28.4187C23.1599 28.5915 23.2469 28.793 23.2835 29.0064C23.32 29.2198 23.3049 29.4389 23.2395 29.6453C23.1741 29.8517 23.0603 30.0393 22.9076 30.1925L18.4296 34.6816L20.3653 36.6235L24.8312 32.133C24.984 31.98 25.1712 31.8659 25.3771 31.8003C25.583 31.7348 25.8015 31.7197 26.0144 31.7563C26.2273 31.7929 26.4284 31.8802 26.6007 32.0107C26.773 32.1413 26.9115 32.3114 27.0047 32.5068C27.8175 34.2085 28.1076 36.1139 27.838 37.9812C27.5685 39.8484 26.7516 41.5933 25.491 42.9943C24.2305 44.3952 22.583 45.3891 20.7579 45.8497C18.9328 46.3103 17.0123 46.2169 15.2403 45.5813L7.17575 53.667Z" fill="#4C4B63"/>
<path d="M54.955 29.7917H60.3583V32.5H54.955V29.7917Z" fill="#4C4B63"/>
<path d="M49.5516 29.7917H52.2533V32.5H49.5516V29.7917Z" fill="#4C4B63"/>
<path d="M9.02639 23.0208H6.32471V17.6042C6.32471 17.245 6.46703 16.9006 6.72036 16.6466C6.97369 16.3927 7.31728 16.25 7.67555 16.25H13.0789V18.9583H9.02639V23.0208Z" fill="#4C4B63"/>
<path d="M15.7806 16.25H18.4823V18.9583H15.7806V16.25Z" fill="#4C4B63"/>
<path d="M33.3415 12.1875H36.0432V14.8958H33.3415V12.1875Z" fill="#4C4B63"/>
<path d="M38.7449 12.1875H60.3583V14.8958H38.7449V12.1875Z" fill="#4C4B63"/>
<path d="M33.3415 47.3958H36.0432V50.1041H33.3415V47.3958Z" fill="#4C4B63"/>
<path d="M38.7449 47.3958H60.3583V50.1041H38.7449V47.3958Z" fill="#4C4B63"/>
<path d="M36.0432 18.9583H38.7448V43.3333H36.0432V18.9583Z" fill="#4C4B63"/>
</g>
<defs>
<clipPath id="clip0_23_126">
<rect width="64.8403" height="65" fill="white" transform="translate(0.921356)"/>
</clipPath>
</defs>
</svg>
