<svg width="66" height="65" viewBox="0 0 66 65" fill="none" xmlns="http://www.w3.org/2000/svg">
<g clip-path="url(#clip0_22_80)">
<path d="M59.0148 65H7.68295C5.89228 64.9978 4.17557 64.2838 2.90938 63.0145C1.64318 61.7452 0.930894 60.0242 0.928749 58.2292C0.928749 57.87 1.07107 57.5256 1.3244 57.2716C1.57773 57.0177 1.92132 56.875 2.27959 56.875H64.4182C64.7765 56.875 65.1201 57.0177 65.3734 57.2716C65.6267 57.5256 65.769 57.87 65.769 58.2292C65.7669 60.0242 65.0546 61.7452 63.7884 63.0145C62.5222 64.2838 60.8055 64.9978 59.0148 65ZM3.86142 59.5833C4.14183 60.3749 4.65963 61.06 5.34382 61.5449C6.028 62.0298 6.84506 62.2906 7.68295 62.2917H59.0148C59.8527 62.2906 60.6698 62.0298 61.354 61.5449C62.0382 61.06 62.556 60.3749 62.8364 59.5833H3.86142Z" fill="#4C4B63"/>
<path d="M26.5947 58.2292H40.1031V60.9375H26.5947V58.2292Z" fill="#4C4B63"/>
<path d="M63.0674 58.2291H60.3657V18.9583C60.3657 18.5992 60.2234 18.2547 59.97 18.0008C59.7167 17.7468 59.3731 17.6041 59.0148 17.6041H53.6115V14.8958H59.0148C60.0896 14.8958 61.1204 15.3238 61.8804 16.0857C62.6404 16.8476 63.0674 17.8809 63.0674 18.9583V58.2291Z" fill="#4C4B63"/>
<path d="M6.3321 58.2291H3.63042V18.9583C3.63042 17.8809 4.05739 16.8476 4.81738 16.0857C5.57737 15.3238 6.60815 14.8958 7.68294 14.8958H17.1388V17.6041H7.68294C7.32468 17.6041 6.98109 17.7468 6.72776 18.0008C6.47442 18.2547 6.3321 18.5992 6.3321 18.9583V58.2291Z" fill="#4C4B63"/>
<path d="M9.03378 48.75H11.7355V51.4583H9.03378V48.75Z" fill="#4C4B63"/>
<path d="M14.4371 48.75H52.2606V51.4583H14.4371V48.75Z" fill="#4C4B63"/>
<path d="M54.9623 48.75H57.664V51.4583H54.9623V48.75Z" fill="#4C4B63"/>
<path d="M18.4897 50.1042H15.788V4.0625C15.788 2.98506 16.2149 1.95175 16.9749 1.18988C17.7349 0.428012 18.7657 0 19.8405 0L46.8573 0C47.9321 0 48.9629 0.428012 49.7228 1.18988C50.4828 1.95175 50.9098 2.98506 50.9098 4.0625V12.1875H48.2081V4.0625C48.2081 3.70335 48.0658 3.35892 47.8125 3.10496C47.5591 2.851 47.2156 2.70833 46.8573 2.70833H19.8405C19.4822 2.70833 19.1386 2.851 18.8853 3.10496C18.632 3.35892 18.4897 3.70335 18.4897 4.0625V50.1042Z" fill="#4C4B63"/>
<path d="M17.1388 8.125H49.559V10.8333H17.1388V8.125Z" fill="#4C4B63"/>
<path d="M29.2964 4.0625H37.4014V6.77083H29.2964V4.0625Z" fill="#4C4B63"/>
<path d="M36.9259 34.0925C36.5677 34.0924 36.2241 33.9497 35.9709 33.6957L32.1561 29.8729C31.9029 29.619 31.7606 29.2746 31.7606 28.9155C31.7606 28.5564 31.9029 28.212 32.1561 27.9581L58.8581 1.18894C59.6293 0.450324 60.6547 0.038147 61.7213 0.038147C62.7878 0.038147 63.8133 0.450324 64.5844 1.18894C65.3424 1.95055 65.7682 2.98251 65.7682 4.05842C65.7682 5.13432 65.3424 6.16629 64.5844 6.9279L37.881 33.6957C37.6277 33.9497 37.2842 34.0924 36.9259 34.0925ZM35.0212 28.9155L36.9259 30.8235L62.6729 5.0104C62.9245 4.75668 63.0657 4.41346 63.0657 4.05571C63.0657 3.69796 62.9245 3.35474 62.6729 3.10102C62.4167 2.85527 62.0758 2.71811 61.7213 2.71811C61.3667 2.71811 61.0258 2.85527 60.7696 3.10102L35.0212 28.9155Z" fill="#4C4B63"/>
<path d="M29.2964 37.9166C29.0661 37.9168 28.8396 37.8578 28.6384 37.7455C28.4372 37.6332 28.268 37.4712 28.1469 37.2748C28.0258 37.0785 27.9567 36.8544 27.9463 36.6238C27.9359 36.3931 27.9844 36.1637 28.0874 35.9572L31.9021 28.3088L34.3188 29.5208L32.3169 33.5346L36.3207 31.5263L37.5365 33.9489L29.9002 37.7812C29.7121 37.8726 29.5054 37.919 29.2964 37.9166Z" fill="#4C4B63"/>
<path d="M51.2295 10.7508L53.1398 8.83571L56.9549 12.6601L55.0445 14.5752L51.2295 10.7508Z" fill="#4C4B63"/>
<path d="M48.2081 20.3125H50.9098V50.1042H48.2081V20.3125Z" fill="#4C4B63"/>
<path d="M21.1913 35.2083H25.2439V37.9166H21.1913V35.2083Z" fill="#4C4B63"/>
<path d="M36.0506 35.2083H45.5065V37.9166H36.0506V35.2083Z" fill="#4C4B63"/>
<path d="M21.1913 41.9792H45.5065V44.6875H21.1913V41.9792Z" fill="#4C4B63"/>
<path d="M21.1913 13.5417H23.893V16.25H21.1913V13.5417Z" fill="#4C4B63"/>
<path d="M26.5947 13.5417H29.2964V16.25H26.5947V13.5417Z" fill="#4C4B63"/>
<path d="M21.1913 18.9583H23.893V21.6666H21.1913V18.9583Z" fill="#4C4B63"/>
</g>
<defs>
<clipPath id="clip0_22_80">
<rect width="64.8403" height="65" fill="white" transform="translate(0.928749)"/>
</clipPath>
</defs>
</svg>
