<svg width="65" height="65" viewBox="0 0 65 65" fill="none" xmlns="http://www.w3.org/2000/svg">
<g clip-path="url(#clip0_23_213)">
<path d="M33.8542 65H4.0625C2.98506 65 1.95175 64.572 1.18988 63.8101C0.428012 63.0483 0 62.0149 0 60.9375L0 4.0625C0 2.98506 0.428012 1.95175 1.18988 1.18988C1.95175 0.428012 2.98506 0 4.0625 0L33.8542 0C34.9316 0 35.9649 0.428012 36.7268 1.18988C37.4887 1.95175 37.9167 2.98506 37.9167 4.0625V6.77083H35.2083V4.0625C35.2083 3.70335 35.0657 3.35891 34.8117 3.10496C34.5578 2.851 34.2133 2.70833 33.8542 2.70833H4.0625C3.70335 2.70833 3.35892 2.851 3.10496 3.10496C2.851 3.35891 2.70833 3.70335 2.70833 4.0625V60.9375C2.70833 61.2966 2.851 61.6411 3.10496 61.895C3.35892 62.149 3.70335 62.2917 4.0625 62.2917H33.8542C34.2133 62.2917 34.5578 62.149 34.8117 61.895C35.0657 61.6411 35.2083 61.2966 35.2083 60.9375V58.2292H37.9167V60.9375C37.9167 62.0149 37.4887 63.0483 36.7268 63.8101C35.9649 64.572 34.9316 65 33.8542 65Z" fill="#4C4B63"/>
<path d="M1.35416 10.8334H28.4375V13.5417H1.35416V10.8334Z" fill="#4C4B63"/>
<path d="M1.35416 51.4584H28.4375V54.1667H1.35416V51.4584Z" fill="#4C4B63"/>
<path d="M14.8958 5.41663H23.0208V8.12496H14.8958V5.41663Z" fill="#4C4B63"/>
<path d="M14.8958 56.875H23.0208V59.5833H14.8958V56.875Z" fill="#4C4B63"/>
<path d="M58.2292 59.5833H33.8542C32.0591 59.5811 30.3381 58.8671 29.0688 57.5978C27.7995 56.3285 27.0855 54.6075 27.0833 52.8125V48.75H20.3125C20.0447 48.7499 19.783 48.6705 19.5603 48.5217C19.3377 48.3728 19.1642 48.1614 19.0617 47.914C18.9592 47.6666 18.9324 47.3943 18.9846 47.1317C19.0369 46.869 19.1658 46.6278 19.3551 46.4384L27.0833 38.7102V12.1875C27.0855 10.3924 27.7995 8.67144 29.0688 7.40213C30.3381 6.13282 32.0591 5.41878 33.8542 5.41663H58.2292C60.0242 5.41878 61.7452 6.13282 63.0145 7.40213C64.2838 8.67144 64.9978 10.3924 65 12.1875V52.8125C64.9978 54.6075 64.2838 56.3285 63.0145 57.5978C61.7452 58.8671 60.0242 59.5811 58.2292 59.5833ZM23.5815 46.0416H28.4375C28.7966 46.0416 29.1411 46.1843 29.395 46.4383C29.649 46.6922 29.7917 47.0366 29.7917 47.3958V52.8125C29.7917 53.8899 30.2197 54.9232 30.9815 55.6851C31.7434 56.4469 32.7767 56.875 33.8542 56.875H58.2292C59.3066 56.875 60.3399 56.4469 61.1018 55.6851C61.8636 54.9232 62.2917 53.8899 62.2917 52.8125V12.1875C62.2917 11.11 61.8636 10.0767 61.1018 9.31484C60.3399 8.55297 59.3066 8.12496 58.2292 8.12496H33.8542C32.7767 8.12496 31.7434 8.55297 30.9815 9.31484C30.2197 10.0767 29.7917 11.11 29.7917 12.1875V39.2708C29.7916 39.6299 29.6489 39.9743 29.3949 40.2282L23.5815 46.0416Z" fill="#4C4B63"/>
<path d="M5.41666 16.25H8.125V18.9583H5.41666V16.25Z" fill="#4C4B63"/>
<path d="M10.8333 16.25H13.5417V18.9583H10.8333V16.25Z" fill="#4C4B63"/>
<path d="M5.41666 21.6666H8.125V24.375H5.41666V21.6666Z" fill="#4C4B63"/>
<path d="M12.1875 48.75H6.77083C6.41168 48.75 6.06725 48.6073 5.81329 48.3533C5.55934 48.0994 5.41666 47.7549 5.41666 47.3958V41.9791H8.125V46.0416H12.1875V48.75Z" fill="#4C4B63"/>
<path d="M5.41666 36.5625H8.125V39.2708H5.41666V36.5625Z" fill="#4C4B63"/>
<path d="M46.0417 46.0417C43.3634 46.0417 40.7452 45.2475 38.5183 43.7595C36.2914 42.2716 34.5557 40.1566 33.5308 37.6822C32.5059 35.2078 32.2377 32.485 32.7602 29.8582C33.2827 27.2314 34.5724 24.8185 36.4663 22.9246C38.3601 21.0308 40.773 19.7411 43.3998 19.2186C46.0266 18.6961 48.7494 18.9642 51.2238 19.9892C53.6983 21.0141 55.8132 22.7498 57.3012 24.9767C58.7891 27.2036 59.5833 29.8218 59.5833 32.5C59.5794 36.0903 58.1514 39.5324 55.6127 42.0711C53.074 44.6098 49.6319 46.0378 46.0417 46.0417ZM46.0417 21.6667C43.899 21.6667 41.8045 22.3021 40.023 23.4925C38.2415 24.6828 36.8529 26.3748 36.033 28.3543C35.213 30.3338 34.9985 32.5121 35.4165 34.6135C35.8345 36.715 36.8663 38.6453 38.3813 40.1604C39.8964 41.6754 41.8267 42.7072 43.9282 43.1252C46.0297 43.5432 48.2079 43.3287 50.1874 42.5087C52.1669 41.6888 53.8589 40.3003 55.0493 38.5187C56.2396 36.7372 56.875 34.6427 56.875 32.5C56.8718 29.6279 55.7294 26.8742 53.6984 24.8433C51.6675 22.8123 48.9139 21.6699 46.0417 21.6667Z" fill="#4C4B63"/>
<path d="M35.6057 41.021L54.564 22.0627L56.4791 23.9777L37.5208 42.9361L35.6057 41.021Z" fill="#4C4B63"/>
<path d="M35.6057 23.9788L37.5208 22.0637L56.4791 41.022L54.564 42.9371L35.6057 23.9788Z" fill="#4C4B63"/>
</g>
<defs>
<clipPath id="clip0_23_213">
<rect width="65" height="65" fill="white"/>
</clipPath>
</defs>
</svg>
