<svg width="66" height="65" viewBox="0 0 66 65" fill="none" xmlns="http://www.w3.org/2000/svg">
<g clip-path="url(#clip0_20_24)">
<path d="M10.3772 13.5417H7.67557V10.8334H10.3772C10.7355 10.8334 11.0791 10.6907 11.3324 10.4367C11.5858 10.1828 11.7281 9.83833 11.7281 9.47918V4.62314L3.22726 13.1449L1.31717 11.2301L12.1239 0.396787C12.3128 0.207462 12.5535 0.0785368 12.8155 0.0263099C13.0775 -0.025917 13.349 0.000899528 13.5958 0.103369C13.8426 0.205839 14.0536 0.379362 14.202 0.602C14.3505 0.824638 14.4297 1.0864 14.4298 1.35418V9.47918C14.4298 10.5566 14.0028 11.5899 13.2428 12.3518C12.4828 13.1137 11.452 13.5417 10.3772 13.5417Z" fill="#4C4B63"/>
<path d="M42.7974 65H4.97391C3.89911 65 2.86834 64.572 2.10834 63.8101C1.34835 63.0483 0.921387 62.0149 0.921387 60.9375L0.921387 12.1875C0.921463 11.8284 1.06383 11.484 1.31718 11.2301L12.1239 0.396771C12.3772 0.142798 12.7207 7.66965e-05 13.0789 0L42.7974 0C43.8722 0 44.903 0.428012 45.663 1.18988C46.423 1.95175 46.8499 2.98506 46.8499 4.0625V37.9167H44.1483V4.0625C44.1483 3.70335 44.0059 3.35891 43.7526 3.10496C43.4993 2.851 43.1557 2.70833 42.7974 2.70833H13.6382L3.62307 12.7481V60.9375C3.62307 61.2966 3.76539 61.6411 4.01872 61.895C4.27205 62.149 4.61564 62.2917 4.97391 62.2917H42.7974C43.1557 62.2917 43.4993 62.149 43.7526 61.895C44.0059 61.6411 44.1483 61.2966 44.1483 60.9375V46.0417H46.8499V60.9375C46.8499 62.0149 46.423 63.0483 45.663 63.8101C44.903 64.572 43.8722 65 42.7974 65Z" fill="#4C4B63"/>
<path d="M13.4747 40.2282L6.72055 33.4574C6.46731 33.2035 6.32504 32.8591 6.32504 32.5C6.32504 32.1409 6.46731 31.7966 6.72055 31.5426L13.4747 24.7718L15.3848 26.6866L9.58568 32.5L15.3848 38.3135L13.4747 40.2282Z" fill="#4C4B63"/>
<path d="M34.2966 40.2282L32.3865 38.3135L38.1856 32.5L32.3865 26.6866L34.2966 24.7718L41.0508 31.5426C41.304 31.7966 41.4463 32.1409 41.4463 32.5C41.4463 32.8591 41.304 33.2035 41.0508 33.4574L34.2966 40.2282Z" fill="#4C4B63"/>
<path d="M18.7095 37.1646L26.8148 24.9767L29.0628 26.479L20.9575 38.6669L18.7095 37.1646Z" fill="#4C4B63"/>
<path d="M41.4466 51.2674C41.2691 51.2679 41.0933 51.233 40.9294 51.1649C40.7654 51.0968 40.6166 50.9968 40.4915 50.8706L36.6362 47.0058C36.383 46.7519 36.2407 46.4075 36.2407 46.0484C36.2407 45.6894 36.383 45.345 36.6362 45.091L58.8022 22.8637C59.1798 22.48 59.6294 22.175 60.1251 21.9662C60.6208 21.7575 61.1528 21.6491 61.6905 21.6472C62.2282 21.6454 62.7609 21.7503 63.258 21.9557C63.7551 22.1611 64.2068 22.4631 64.587 22.8442C64.9672 23.2254 65.2684 23.6781 65.4734 24.1765C65.6783 24.6748 65.7829 25.2088 65.781 25.7478C65.7792 26.2868 65.6711 26.8202 65.4628 27.3171C65.2546 27.814 64.9503 28.2648 64.5675 28.6433L42.3922 50.8706C42.1418 51.1231 41.8017 51.2658 41.4466 51.2674ZM39.5014 46.0484L41.4466 47.9984L62.6548 26.7285C62.9127 26.4699 63.0576 26.1192 63.0576 25.7535C63.0576 25.3878 62.9127 25.0371 62.6548 24.7785C62.3968 24.5199 62.0469 24.3747 61.6821 24.3747C61.3173 24.3747 60.9675 24.5199 60.7095 24.7785L39.5014 46.0484Z" fill="#4C4B63"/>
<path d="M34.6924 54.1667C34.4688 54.1666 34.2488 54.111 34.052 54.0047C33.8552 53.8985 33.6877 53.7449 33.5647 53.5578C33.4417 53.3707 33.3669 53.156 33.347 52.9328C33.3272 52.7096 33.3629 52.4849 33.4509 52.279L36.3431 45.5081L38.8259 46.5739L37.259 50.2396L40.9062 48.6742L41.9693 51.1631L35.2151 54.0624C35.0496 54.132 34.8718 54.1675 34.6924 54.1667Z" fill="#4C4B63"/>
<path d="M6.32474 51.4583H34.6924V54.1666H6.32474V51.4583Z" fill="#4C4B63"/>
<path d="M6.32474 44.6875H9.02642V47.3958H6.32474V44.6875Z" fill="#4C4B63"/>
<path d="M11.7281 44.6875H31.9907V47.3958H11.7281V44.6875Z" fill="#4C4B63"/>
<path d="M6.32474 17.6042H9.02642V20.3125H6.32474V17.6042Z" fill="#4C4B63"/>
<path d="M11.7281 17.6042H41.4466V20.3125H11.7281V17.6042Z" fill="#4C4B63"/>
<path d="M38.7449 5.41669H41.4466V8.12502H38.7449V5.41669Z" fill="#4C4B63"/>
<path d="M38.7449 10.8333H41.4466V13.5416H38.7449V10.8333Z" fill="#4C4B63"/>
<path d="M33.3415 5.41669H36.0432V8.12502H33.3415V5.41669Z" fill="#4C4B63"/>
</g>
<defs>
<clipPath id="clip0_20_24">
<rect width="64.8403" height="65" fill="white" transform="translate(0.921387)"/>
</clipPath>
</defs>
</svg>
