<svg width="65" height="65" viewBox="0 0 65 65" fill="none" xmlns="http://www.w3.org/2000/svg">
<g clip-path="url(#clip0_23_229)">
<path d="M59.5833 17.6042H56.875V12.1875C56.875 11.8284 56.7323 11.4839 56.4784 11.23C56.2244 10.976 55.88 10.8333 55.5208 10.8333H25.7292V8.125H55.5208C56.5983 8.125 57.6316 8.55301 58.3934 9.31488C59.1553 10.0767 59.5833 11.1101 59.5833 12.1875V17.6042Z" fill="#4C4B63"/>
<path d="M31.1458 54.1667H9.47916C8.40171 54.1667 7.3684 53.7387 6.60654 52.9768C5.84467 52.2149 5.41666 51.1816 5.41666 50.1042V24.375H8.12499V50.1042C8.12499 50.4633 8.26766 50.8078 8.52162 51.0617C8.77557 51.3157 9.12001 51.4583 9.47916 51.4583H31.1458V54.1667Z" fill="#4C4B63"/>
<path d="M20.3125 52.8125H23.0208V58.2292H20.3125V52.8125Z" fill="#4C4B63"/>
<path d="M17.6042 63.6458H14.8958V60.9375C14.8958 59.8601 15.3239 58.8267 16.0857 58.0649C16.8476 57.303 17.8809 56.875 18.9583 56.875H31.1458V59.5833H18.9583C18.5992 59.5833 18.2548 59.726 18.0008 59.98C17.7468 60.2339 17.6042 60.5784 17.6042 60.9375V63.6458Z" fill="#4C4B63"/>
<path d="M12.1875 62.2916H33.8542V65H12.1875V62.2916Z" fill="#4C4B63"/>
<path d="M60.9375 65H33.8542C32.7767 65 31.7434 64.572 30.9815 63.8101C30.2197 63.0483 29.7917 62.0149 29.7917 60.9375V20.3125C29.7917 19.2351 30.2197 18.2017 30.9815 17.4399C31.7434 16.678 32.7767 16.25 33.8542 16.25H60.9375C62.0149 16.25 63.0482 16.678 63.8101 17.4399C64.572 18.2017 65 19.2351 65 20.3125V60.9375C65 62.0149 64.572 63.0483 63.8101 63.8101C63.0482 64.572 62.0149 65 60.9375 65ZM33.8542 18.9583C33.495 18.9583 33.1506 19.101 32.8966 19.355C32.6427 19.6089 32.5 19.9534 32.5 20.3125V60.9375C32.5 61.2966 32.6427 61.6411 32.8966 61.895C33.1506 62.149 33.495 62.2917 33.8542 62.2917H60.9375C61.2966 62.2917 61.6411 62.149 61.895 61.895C62.149 61.6411 62.2917 61.2966 62.2917 60.9375V20.3125C62.2917 19.9534 62.149 19.6089 61.895 19.355C61.6411 19.101 61.2966 18.9583 60.9375 18.9583H33.8542Z" fill="#4C4B63"/>
<path d="M31.1458 24.375H63.6458V27.0833H31.1458V24.375Z" fill="#4C4B63"/>
<path d="M31.1458 54.1666H63.6458V56.875H31.1458V54.1666Z" fill="#4C4B63"/>
<path d="M43.3333 20.3125H51.4583V23.0208H43.3333V20.3125Z" fill="#4C4B63"/>
<path d="M43.3333 58.2291H51.4583V60.9375H43.3333V58.2291Z" fill="#4C4B63"/>
<path d="M21.6667 29.7916C21.3076 29.7916 20.9632 29.6488 20.7093 29.3949L17.7301 26.4157C14.5611 27.4563 11.12 27.2954 8.06187 25.9638C5.0037 24.6322 2.54181 22.2227 1.14469 19.1939C-0.252439 16.1651 -0.487289 12.7283 0.484828 9.53763C1.45694 6.34692 3.56817 3.62495 6.41677 1.88969C9.26537 0.15443 12.6525 -0.473007 15.9337 0.126775C19.2148 0.726557 22.1609 2.51169 24.2114 5.14249C26.2619 7.77329 27.2737 11.0661 27.0541 14.3944C26.8346 17.7227 25.3991 20.8541 23.0208 23.1928V28.4375C23.0209 28.7053 22.9416 28.9671 22.7928 29.1898C22.6441 29.4125 22.4327 29.5862 22.1853 29.6887C22.021 29.7572 21.8447 29.7922 21.6667 29.7916ZM18.0781 23.4948C18.4372 23.4948 18.7816 23.6376 19.0355 23.8915L20.3125 25.1685V22.6064C20.3125 22.4164 20.3526 22.2284 20.43 22.0548C20.5075 21.8812 20.6206 21.7259 20.7621 21.5989C22.7644 19.7929 24.0174 17.3021 24.274 14.6179C24.5306 11.9336 23.7722 9.25061 22.1483 7.09791C20.5244 4.9452 18.1529 3.47903 15.5014 2.98847C12.8499 2.49792 10.1108 3.01859 7.82423 4.44782C5.53765 5.87705 3.86953 8.11111 3.14879 10.7095C2.42804 13.3079 2.70697 16.082 3.93058 18.4849C5.15419 20.8878 7.23367 22.7451 9.75901 23.6905C12.2843 24.6359 15.0723 24.6009 17.573 23.5923C17.7335 23.5276 17.9051 23.4945 18.0781 23.4948Z" fill="#4C4B63"/>
<path d="M6.77083 16.25C6.23518 16.25 5.71155 16.0912 5.26617 15.7936C4.82078 15.496 4.47365 15.073 4.26866 14.5781C4.06367 14.0833 4.01004 13.5387 4.11454 13.0133C4.21904 12.488 4.47699 12.0054 4.85575 11.6266C5.23452 11.2479 5.7171 10.9899 6.24246 10.8854C6.76783 10.7809 7.31239 10.8345 7.80727 11.0395C8.30215 11.2445 8.72514 11.5917 9.02273 12.037C9.32033 12.4824 9.47917 13.0061 9.47917 13.5417C9.47917 14.26 9.19383 14.9489 8.68592 15.4568C8.178 15.9647 7.48913 16.25 6.77083 16.25Z" fill="#4C4B63"/>
<path d="M13.5417 16.25C13.006 16.25 12.4824 16.0912 12.037 15.7936C11.5916 15.496 11.2445 15.073 11.0395 14.5781C10.8345 14.0833 10.7809 13.5387 10.8854 13.0133C10.9899 12.488 11.2478 12.0054 11.6266 11.6266C12.0054 11.2479 12.4879 10.9899 13.0133 10.8854C13.5387 10.7809 14.0832 10.8345 14.5781 11.0395C15.073 11.2445 15.496 11.5917 15.7936 12.037C16.0912 12.4824 16.25 13.0061 16.25 13.5417C16.25 14.26 15.9647 14.9489 15.4568 15.4568C14.9488 15.9647 14.26 16.25 13.5417 16.25Z" fill="#4C4B63"/>
<path d="M20.3125 16.25C19.7768 16.25 19.2532 16.0912 18.8078 15.7936C18.3624 15.496 18.0153 15.073 17.8103 14.5781C17.6053 14.0833 17.5517 13.5387 17.6562 13.0133C17.7607 12.488 18.0186 12.0054 18.3974 11.6266C18.7762 11.2479 19.2588 10.9899 19.7841 10.8854C20.3095 10.7809 20.854 10.8345 21.3489 11.0395C21.8438 11.2445 22.2668 11.5917 22.5644 12.037C22.862 12.4824 23.0208 13.0061 23.0208 13.5417C23.0208 14.26 22.7355 14.9489 22.2276 15.4568C21.7197 15.9647 21.0308 16.25 20.3125 16.25Z" fill="#4C4B63"/>
<path d="M6.77084 43.3334H31.1458V46.0417H6.77084V43.3334Z" fill="#4C4B63"/>
<path d="M17.6042 40.625H12.1875C11.8284 40.625 11.4839 40.4823 11.23 40.2283C10.976 39.9744 10.8333 39.6299 10.8333 39.2708V33.8541H13.5417V37.9166H17.6042V40.625Z" fill="#4C4B63"/>
<path d="M20.3125 37.9166H23.0208V40.625H20.3125V37.9166Z" fill="#4C4B63"/>
<path d="M41.0218 45.6449L36.9593 41.5824C36.7054 41.3285 36.5628 40.9841 36.5628 40.625C36.5628 40.2659 36.7054 39.9215 36.9593 39.6676L41.0218 35.6051L42.9366 37.5199L39.8315 40.625L42.9366 43.7301L41.0218 45.6449Z" fill="#4C4B63"/>
<path d="M53.7699 45.6449L51.8551 43.7301L54.9602 40.625L51.8551 37.5199L53.7699 35.6051L57.8324 39.6676C58.0863 39.9215 58.2289 40.2659 58.2289 40.625C58.2289 40.9841 58.0863 41.3285 57.8324 41.5824L53.7699 45.6449Z" fill="#4C4B63"/>
<path d="M43.5604 43.9371L48.977 35.8122L51.2305 37.3146L45.8139 45.4394L43.5604 43.9371Z" fill="#4C4B63"/>
<path d="M35.2083 29.7916H37.9167V32.5H35.2083V29.7916Z" fill="#4C4B63"/>
<path d="M40.625 29.7916H43.3333V32.5H40.625V29.7916Z" fill="#4C4B63"/>
<path d="M56.875 48.75H59.5833V51.4583H56.875V48.75Z" fill="#4C4B63"/>
<path d="M51.4583 48.75H54.1667V51.4583H51.4583V48.75Z" fill="#4C4B63"/>
</g>
<defs>
<clipPath id="clip0_23_229">
<rect width="65" height="65" fill="white"/>
</clipPath>
</defs>
</svg>
