<?xml version="1.0" encoding="UTF-8" standalone="no"?>
<svg
   viewBox="0 0 24 24"
   version="1.1"
   id="svg255"
   sodipodi:docname="facebook.svg"
   inkscape:version="1.2.2 (732a01da63, 2022-12-09)"
   xmlns:inkscape="http://www.inkscape.org/namespaces/inkscape"
   xmlns:sodipodi="http://sodipodi.sourceforge.net/DTD/sodipodi-0.dtd"
   xmlns="http://www.w3.org/2000/svg"
   xmlns:svg="http://www.w3.org/2000/svg">
  <defs
     id="defs259" />
  <sodipodi:namedview
     id="namedview257"
     pagecolor="#505050"
     bordercolor="#eeeeee"
     borderopacity="1"
     inkscape:showpageshadow="0"
     inkscape:pageopacity="0"
     inkscape:pagecheckerboard="0"
     inkscape:deskcolor="#505050"
     showgrid="false"
     inkscape:zoom="41.583333"
     inkscape:cx="12"
     inkscape:cy="12.012024"
     inkscape:window-width="2560"
     inkscape:window-height="1373"
     inkscape:window-x="1911"
     inkscape:window-y="29"
     inkscape:window-maximized="1"
     inkscape:current-layer="svg255" />
  <path
     d="m0 0h24v24h-24z"
     fill="#fff"
     opacity="0"
     transform="matrix(-1 0 0 -1 24 24)"
     id="path251" />
  <path
     d="m17 3.5a.5.5 0 0 0 -.5-.5h-2.5a4.77 4.77 0 0 0 -5 4.5v2.7h-2.5a.5.5 0 0 0 -.5.5v2.6a.5.5 0 0 0 .5.5h2.5v6.7a.5.5 0 0 0 .5.5h3a.5.5 0 0 0 .5-.5v-6.7h2.62a.5.5 0 0 0 .49-.37l.72-2.6a.5.5 0 0 0 -.48-.63h-3.35v-2.7a1 1 0 0 1 1-.9h2.5a.5.5 0 0 0 .5-.5z"
     fill="#231f20"
     id="path253"
     style="fill:#ffffff" />
</svg>
