<?xml version="1.0" encoding="UTF-8" standalone="no"?>
<svg
   viewBox="0 0 24 24"
   version="1.1"
   id="svg192"
   sodipodi:docname="home-outline.svg"
   inkscape:version="1.2.2 (732a01da63, 2022-12-09)"
   xmlns:inkscape="http://www.inkscape.org/namespaces/inkscape"
   xmlns:sodipodi="http://sodipodi.sourceforge.net/DTD/sodipodi-0.dtd"
   xmlns="http://www.w3.org/2000/svg"
   xmlns:svg="http://www.w3.org/2000/svg">
  <defs
     id="defs196" />
  <sodipodi:namedview
     id="namedview194"
     pagecolor="#505050"
     bordercolor="#eeeeee"
     borderopacity="1"
     inkscape:showpageshadow="0"
     inkscape:pageopacity="0"
     inkscape:pagecheckerboard="0"
     inkscape:deskcolor="#505050"
     showgrid="false"
     inkscape:zoom="41.583333"
     inkscape:cx="12"
     inkscape:cy="12.012024"
     inkscape:window-width="2560"
     inkscape:window-height="1373"
     inkscape:window-x="1911"
     inkscape:window-y="29"
     inkscape:window-maximized="1"
     inkscape:current-layer="svg192" />
  <path
     d="m0 0h24v24h-24z"
     fill="#fff"
     opacity="0"
     id="path188" />
  <path
     d="m20.42 10.18-7.71-7.88a1 1 0 0 0 -1.42 0l-7.71 7.89a2 2 0 0 0 -.58 1.43v8.38a2 2 0 0 0 1.89 2h14.22a2 2 0 0 0 1.89-2v-8.38a2.07 2.07 0 0 0 -.58-1.44zm-10.42 9.82v-6h4v6zm9 0h-3v-7a1 1 0 0 0 -1-1h-6a1 1 0 0 0 -1 1v7h-3v-8.42l7-7.15 7 7.19z"
     fill="#231f20"
     id="path190"
     style="fill:#ffffff" />
</svg>
