<?xml version="1.0" encoding="UTF-8" standalone="no"?>
<svg
   viewBox="0 0 24 24"
   version="1.1"
   id="svg282"
   sodipodi:docname="linkedin.svg"
   inkscape:version="1.2.2 (732a01da63, 2022-12-09)"
   xmlns:inkscape="http://www.inkscape.org/namespaces/inkscape"
   xmlns:sodipodi="http://sodipodi.sourceforge.net/DTD/sodipodi-0.dtd"
   xmlns="http://www.w3.org/2000/svg"
   xmlns:svg="http://www.w3.org/2000/svg">
  <defs
     id="defs286" />
  <sodipodi:namedview
     id="namedview284"
     pagecolor="#505050"
     bordercolor="#eeeeee"
     borderopacity="1"
     inkscape:showpageshadow="0"
     inkscape:pageopacity="0"
     inkscape:pagecheckerboard="0"
     inkscape:deskcolor="#505050"
     showgrid="false"
     inkscape:zoom="41.583333"
     inkscape:cx="12"
     inkscape:cy="12.012024"
     inkscape:window-width="2560"
     inkscape:window-height="1373"
     inkscape:window-x="1911"
     inkscape:window-y="29"
     inkscape:window-maximized="1"
     inkscape:current-layer="svg282" />
  <path
     d="m0 0h24v24h-24z"
     fill="#fff"
     opacity="0"
     transform="matrix(-1 0 0 -1 24 24)"
     id="path272" />
  <g
     fill="#231f20"
     id="g280"
     style="fill:#ffffff">
    <path
       d="m15.15 8.4a5.83 5.83 0 0 0 -5.85 5.82v5.88a.9.9 0 0 0 .9.9h2.1a.9.9 0 0 0 .9-.9v-5.88a1.94 1.94 0 0 1 2.15-1.93 2 2 0 0 1 1.75 2v5.81a.9.9 0 0 0 .9.9h2.1a.9.9 0 0 0 .9-.9v-5.88a5.83 5.83 0 0 0 -5.85-5.82z"
       id="path274"
       style="fill:#ffffff" />
    <rect
       height="11.7"
       rx=".9"
       width="4.5"
       x="3"
       y="9.3"
       id="rect276"
       style="fill:#ffffff" />
    <circle
       cx="5.25"
       cy="5.25"
       r="2.25"
       id="circle278"
       style="fill:#ffffff" />
  </g>
</svg>
