<?xml version="1.0" encoding="UTF-8" standalone="no"?>
<svg
   viewBox="0 0 24 24"
   version="1.1"
   id="svg213"
   sodipodi:docname="phone.svg"
   inkscape:version="1.2.2 (732a01da63, 2022-12-09)"
   xmlns:inkscape="http://www.inkscape.org/namespaces/inkscape"
   xmlns:sodipodi="http://sodipodi.sourceforge.net/DTD/sodipodi-0.dtd"
   xmlns="http://www.w3.org/2000/svg"
   xmlns:svg="http://www.w3.org/2000/svg">
  <defs
     id="defs217" />
  <sodipodi:namedview
     id="namedview215"
     pagecolor="#505050"
     bordercolor="#eeeeee"
     borderopacity="1"
     inkscape:showpageshadow="0"
     inkscape:pageopacity="0"
     inkscape:pagecheckerboard="0"
     inkscape:deskcolor="#505050"
     showgrid="false"
     inkscape:zoom="41.583333"
     inkscape:cx="12"
     inkscape:cy="12.012024"
     inkscape:window-width="2560"
     inkscape:window-height="1373"
     inkscape:window-x="1911"
     inkscape:window-y="29"
     inkscape:window-maximized="1"
     inkscape:current-layer="svg213" />
  <path
     d="m0 0h24v24h-24z"
     fill="#fff"
     opacity="0"
     id="path209" />
  <path
     d="m17.4 22a15.42 15.42 0 0 1 -15.4-15.4 4.6 4.6 0 0 1 4.6-4.6 3.94 3.94 0 0 1 .77.07 3.79 3.79 0 0 1 .72.18 1 1 0 0 1 .65.75l1.37 6a1 1 0 0 1 -.26.92c-.13.14-.14.15-1.37.79a9.91 9.91 0 0 0 4.87 4.89c.65-1.24.66-1.25.8-1.38a1 1 0 0 1 .92-.26l6 1.37a1 1 0 0 1 .72.65 4.34 4.34 0 0 1 .19.73 4.77 4.77 0 0 1 .06.76 4.6 4.6 0 0 1 -4.64 4.53z"
     fill="#231f20"
     id="path211"
     style="fill:#ffffff" />
</svg>
