<svg width="65" height="65" viewBox="0 0 65 65" fill="none" xmlns="http://www.w3.org/2000/svg">
<g clip-path="url(#clip0_23_254)">
<path d="M58.0938 27.6887L55.6698 26.4781L56.7396 24.3412C56.8301 24.1523 56.8764 23.9453 56.875 23.7359V21.6667C56.875 19.5118 56.019 17.4452 54.4953 15.9215C52.9715 14.3977 50.9049 13.5417 48.75 13.5417C46.5951 13.5417 44.5285 14.3977 43.0048 15.9215C41.481 17.4452 40.625 19.5118 40.625 21.6667V23.7359C40.6259 23.9462 40.6745 24.1537 40.7672 24.3425L41.837 26.4781L39.413 27.6887L38.3446 25.5532C38.0638 24.9885 37.9174 24.3665 37.9167 23.7359V21.6667C37.9167 18.7935 39.0581 16.038 41.0897 14.0064C43.1213 11.9747 45.8768 10.8334 48.75 10.8334C51.6232 10.8334 54.3787 11.9747 56.4103 14.0064C58.442 16.038 59.5834 18.7935 59.5834 21.6667V23.7359C59.5828 24.3661 59.4364 24.9877 59.1554 25.5518L58.0938 27.6887Z" fill="#4C4B63"/>
<path d="M48.75 37.9167C46.2368 37.9139 43.8274 36.9142 42.0504 35.1372C40.2733 33.3601 39.2737 30.9507 39.2708 28.4376V25.7292C39.2708 25.3701 39.4135 25.0256 39.6674 24.7717C39.9214 24.5177 40.2658 24.3751 40.625 24.3751C44.6414 24.3751 44.6875 21.7778 44.6875 21.6667C44.6874 21.3761 44.7809 21.0931 44.954 20.8597C45.1272 20.6262 45.3709 20.4547 45.649 20.3704C45.9272 20.2862 46.2251 20.2936 46.4987 20.3917C46.7723 20.4898 47.0071 20.6733 47.1683 20.9152C47.2604 21.0452 49.6789 24.3751 56.875 24.3751C57.2341 24.3751 57.5786 24.5177 57.8325 24.7717C58.0865 25.0256 58.2291 25.3701 58.2291 25.7292V28.4376C58.2263 30.9507 57.2267 33.3601 55.4496 35.1372C53.6725 36.9142 51.2631 37.9139 48.75 37.9167ZM41.9791 27.0008V28.4376C41.9791 30.2333 42.6925 31.9555 43.9623 33.2253C45.2321 34.495 46.9542 35.2084 48.75 35.2084C50.5457 35.2084 52.2679 34.495 53.5377 33.2253C54.8075 31.9555 55.5208 30.2333 55.5208 28.4376V27.0468C52.3548 26.9906 49.2784 25.9864 46.6889 24.1638C46.1868 24.9778 45.4974 25.66 44.6781 26.1535C43.8588 26.647 42.9335 26.9375 41.9791 27.0008Z" fill="#4C4B63"/>
<path d="M48.75 41.9792C47.3134 41.9792 45.9356 41.4085 44.9198 40.3927C43.904 39.3769 43.3333 37.9991 43.3333 36.5625V35.2084H46.0416V36.5625C46.0416 37.2808 46.327 37.9697 46.8349 38.4776C47.3428 38.9855 48.0317 39.2709 48.75 39.2709C49.4683 39.2709 50.1572 38.9855 50.6651 38.4776C51.173 37.9697 51.4583 37.2808 51.4583 36.5625V35.2084H54.1666V36.5625C54.1666 37.9991 53.596 39.3769 52.5801 40.3927C51.5643 41.4085 50.1866 41.9792 48.75 41.9792Z" fill="#4C4B63"/>
<path d="M63.6458 65H33.8542C33.495 65 33.1506 64.8573 32.8966 64.6034C32.6427 64.3494 32.5 64.005 32.5 63.6458V46.0417C32.5029 43.5285 33.5025 41.1191 35.2796 39.3421C37.0566 37.565 39.466 36.5654 41.9792 36.5625H44.6875V39.2708H41.9792C40.1841 39.273 38.4631 39.987 37.1938 41.2563C35.9245 42.5256 35.2105 44.2466 35.2083 46.0417V62.2917H62.2917V46.0417C62.2895 44.2466 61.5755 42.5256 60.3062 41.2563C59.0368 39.987 57.3159 39.273 55.5208 39.2708H52.8125V36.5625H55.5208C58.034 36.5654 60.4434 37.565 62.2205 39.3421C63.9975 41.1191 64.9971 43.5285 65 46.0417V63.6458C65 64.005 64.8573 64.3494 64.6034 64.6034C64.3494 64.8573 64.005 65 63.6458 65Z" fill="#4C4B63"/>
<path d="M52.8125 46.0416C52.4534 46.0416 52.109 45.8988 51.8551 45.6449L48.75 42.5398L45.6449 45.6449C45.4987 45.7892 45.3219 45.8989 45.1275 45.9657C44.9332 46.0325 44.7264 46.0548 44.5223 46.0308C44.3182 46.0057 44.1226 45.9346 43.9501 45.8226C43.7777 45.7107 43.633 45.561 43.527 45.3849L39.4645 38.614L41.7855 37.2192L44.957 42.5005L47.7926 39.6567C48.0465 39.4029 48.3909 39.2603 48.75 39.2603C49.1091 39.2603 49.4535 39.4029 49.7074 39.6567L52.543 42.5005L55.7145 37.2192L58.0355 38.614L53.973 45.3849C53.867 45.561 53.7223 45.7107 53.5499 45.8226C53.3774 45.9346 53.1818 46.0057 52.9777 46.0308C52.9229 46.0378 52.8677 46.0414 52.8125 46.0416Z" fill="#4C4B63"/>
<path d="M47.3958 40.625H50.1041V63.6458H47.3958V40.625Z" fill="#4C4B63"/>
<path d="M52.8125 50.1041H59.5833V52.8125H52.8125V50.1041Z" fill="#4C4B63"/>
<path d="M1.35416 10.8334H47.3958V13.5417H1.35416V10.8334Z" fill="#4C4B63"/>
<path d="M5.41666 5.41663H8.12499V8.12496H5.41666V5.41663Z" fill="#4C4B63"/>
<path d="M10.8333 5.41663H13.5417V8.12496H10.8333V5.41663Z" fill="#4C4B63"/>
<path d="M16.25 5.41663H18.9583V8.12496H16.25V5.41663Z" fill="#4C4B63"/>
<path d="M27.0833 59.5833C26.7242 59.5833 26.3798 59.4405 26.1259 59.1866L18.3977 51.4583H4.0625C2.98506 51.4583 1.95175 51.0303 1.18988 50.2685C0.428012 49.5066 0 48.4733 0 47.3958L0 4.0625C0 2.98506 0.428012 1.95175 1.18988 1.18988C1.95175 0.428012 2.98506 0 4.0625 0L44.6875 0C45.7649 0 46.7983 0.428012 47.5601 1.18988C48.322 1.95175 48.75 2.98506 48.75 4.0625V12.1875H46.0417V4.0625C46.0417 3.70335 45.899 3.35892 45.645 3.10496C45.3911 2.851 45.0466 2.70833 44.6875 2.70833H4.0625C3.70335 2.70833 3.35891 2.851 3.10496 3.10496C2.851 3.35892 2.70833 3.70335 2.70833 4.0625V47.3958C2.70833 47.755 2.851 48.0994 3.10496 48.3534C3.35891 48.6073 3.70335 48.75 4.0625 48.75H18.9583C19.3175 48.7501 19.6618 48.8928 19.9157 49.1468L25.7292 54.9602V50.1042C25.7292 49.745 25.8718 49.4006 26.1258 49.1466C26.3797 48.8927 26.7242 48.75 27.0833 48.75H33.8542V51.4583H28.4375V58.2292C28.4376 58.497 28.3582 58.7588 28.2095 58.9815C28.0608 59.2042 27.8494 59.3778 27.602 59.4804C27.4377 59.5489 27.2613 59.5839 27.0833 59.5833Z" fill="#4C4B63"/>
<path d="M11.2301 36.1658L7.1676 32.1033C6.91373 31.8493 6.77112 31.505 6.77112 31.1459C6.77112 30.7868 6.91373 30.4424 7.1676 30.1885L11.2301 26.126L13.1449 28.0408L10.0398 31.1459L13.1449 34.251L11.2301 36.1658Z" fill="#4C4B63"/>
<path d="M29.3949 36.1658L27.4801 34.251L30.5852 31.1459L27.4801 28.0408L29.3949 26.126L33.4574 30.1885C33.7113 30.4424 33.8539 30.7868 33.8539 31.1459C33.8539 31.505 33.7113 31.8493 33.4574 32.1033L29.3949 36.1658Z" fill="#4C4B63"/>
<path d="M16.4766 34.4581L21.8932 26.3332L24.1467 27.8355L18.7301 35.9604L16.4766 34.4581Z" fill="#4C4B63"/>
<path d="M6.77084 17.6041H9.47918V20.3125H6.77084V17.6041Z" fill="#4C4B63"/>
<path d="M6.77084 41.9791H9.47918V44.6875H6.77084V41.9791Z" fill="#4C4B63"/>
<path d="M12.1875 41.9791H29.7917V44.6875H12.1875V41.9791Z" fill="#4C4B63"/>
<path d="M12.1875 17.6041H35.2083V20.3125H12.1875V17.6041Z" fill="#4C4B63"/>
</g>
<defs>
<clipPath id="clip0_23_254">
<rect width="65" height="65" fill="white"/>
</clipPath>
</defs>
</svg>
