<?xml version="1.0" encoding="UTF-8" standalone="no"?>
<svg
   viewBox="0 0 24 24"
   version="1.1"
   id="svg234"
   sodipodi:docname="twitter.svg"
   inkscape:version="1.2.2 (732a01da63, 2022-12-09)"
   xmlns:inkscape="http://www.inkscape.org/namespaces/inkscape"
   xmlns:sodipodi="http://sodipodi.sourceforge.net/DTD/sodipodi-0.dtd"
   xmlns="http://www.w3.org/2000/svg"
   xmlns:svg="http://www.w3.org/2000/svg">
  <defs
     id="defs238" />
  <sodipodi:namedview
     id="namedview236"
     pagecolor="#505050"
     bordercolor="#eeeeee"
     borderopacity="1"
     inkscape:showpageshadow="0"
     inkscape:pageopacity="0"
     inkscape:pagecheckerboard="0"
     inkscape:deskcolor="#505050"
     showgrid="false"
     inkscape:zoom="41.583333"
     inkscape:cx="12"
     inkscape:cy="12.012024"
     inkscape:window-width="2560"
     inkscape:window-height="1373"
     inkscape:window-x="1911"
     inkscape:window-y="29"
     inkscape:window-maximized="1"
     inkscape:current-layer="svg234" />
  <path
     d="m0 0h24v24h-24"
     fill="#fff"
     opacity="0"
     id="path230" />
  <path
     d="m8.08 20a11.07 11.07 0 0 0 11.44-11 8.09 8.09 0 0 0 1.48-2.84.44.44 0 0 0 -.62-.51 1.88 1.88 0 0 1 -2.16-.38 3.89 3.89 0 0 0 -5.58-.17 4.13 4.13 0 0 0 -1.15 3.9c-3.35.2-5.65-1.39-7.49-3.57a.43.43 0 0 0 -.75.24 9.68 9.68 0 0 0 4.6 10.05 6.73 6.73 0 0 1 -4.47 2.28.45.45 0 0 0 -.14.84 11 11 0 0 0 4.84 1.16"
     fill="#231f20"
     id="path232"
     style="fill:#ffffff" />
</svg>
